<mxfile host="app.diagrams.net" modified="2023-10-16T16:56:14.355Z" agent="Mozilla/5.0 (Windows NT 10.0; Win64; x64) AppleWebKit/537.36 (KHTML, like Gecko) Chrome/117.0.0.0 Safari/537.36" version="22.0.4" etag="-kwW_GUMx1Y8SxT3zhMJ" type="github">
  <diagram name="PÃ¡gina-1" id="kpMu6ErjYtjXiAjzQxuT">
    <mxGraphModel>
      <root>
        <mxCell id="0" />
        <mxCell id="1" parent="0" />
      </root>
    </mxGraphModel>
  </diagram>
</mxfile>
